Coordinates
version=1
nRows=12
nColumns=19
inDegrees=yes

Units are S.I. units (second, meters, Newtons, ...)
If the header above contains a line with 'inDegrees', this indicates whether rotational values are in degrees (yes) or radians (no).

endheader
time	pelvis_tilt	pelvis_list	pelvis_rotation	pelvis_tx	pelvis_ty	pelvis_tz	hip_flexion_r	hip_adduction_r	hip_rotation_r	knee_angle_r	knee_angle_r_beta	ankle_angle_r	hip_flexion_l	hip_adduction_l	hip_rotation_l	knee_angle_l	knee_angle_l_beta	ankle_angle_l
     13.77333333	     -2.95371247	      7.95801645	      7.25923906	      2.10004270	      0.97610275	      1.00256158	    -18.61839299	     -9.04661307	    -20.57843258	     70.93304011	      1.23801510	    -19.33219738	     25.96952132	     13.51925622	     -1.38471254	      4.56976718	      0.07975748	     -9.84971665
     13.78000000	     -2.41209937	      9.13961229	      7.75689025	      2.09917923	      0.97274576	      1.00161993	    -17.85893562	    -10.49121488	    -20.70461791	     75.31701012	      1.31452981	    -19.19365181	     25.12854070	     14.82117978	     -2.76393137	      6.30639081	      0.11006728	     -9.99723654
     13.78666667	     -2.31804939	     10.09639427	      8.32332347	      2.09772475	      0.96866543	      1.00063698	    -16.37565007	    -11.70274786	    -20.54016335	     79.75758547	      1.39203247	    -19.03286016	     25.34835817	     15.80053691	     -4.68304573	      9.46132443	      0.16513126	     -9.07834073
     13.79333333	     -2.34030078	     11.09291708	      9.03014840	      2.09607445	      0.96424669	      0.99965155	    -14.75945825	    -12.99398683	    -20.47642216	     84.09535919	      1.46774090	    -18.84913598	     25.82395160	     16.74520580	     -6.50230530	     13.21854123	      0.23070707	     -7.60705007
     13.80000000	     -2.36911243	     11.96586285	      9.75948327	      2.09415715	      0.95967587	      0.99888147	    -13.00358143	    -14.12244335	    -20.26222909	     88.29968749	      1.54112028	    -18.63446514	     26.45039068	     17.43484725	     -8.17840318	     17.52440105	      0.30585850	     -5.42349184
     13.80666667	     -2.66119807	     12.63301387	     10.57614985	      2.09199828	      0.95476686	      0.99816007	    -10.81015042	    -15.09942401	    -19.93757176	     92.38580277	      1.61243644	    -18.38612885	     27.36641514	     17.92855089	     -9.34781754	     22.05841207	      0.38499192	     -2.75149018
     13.81333333	     -2.24653898	     13.73641278	     11.36143689	      2.08993409	      0.95079936	      0.99755069	     -9.58585721	    -16.56004845	    -19.88223539	     96.13282551	      1.67783432	    -18.10718455	     27.13936751	     18.84682269	     -9.89771826	     26.15709081	      0.45652736	      0.19637043
     13.82000000	     -3.23071371	     13.42122595	     12.13792104	      2.08711406	      0.94540389	      0.99710069	     -5.87458331	    -16.52526672	    -18.79199522	     99.95296685	      1.74450837	    -17.86843204	     28.87973420	     18.49112729	     -9.99966774	     30.92943076	      0.53982040	      3.66812633
     13.82666667	     -3.50237961	     13.48267947	     12.84276516	      2.08435554	      0.94119521	      0.99667719	     -3.08402389	    -16.93553311	    -17.98359881	    103.37661856	      1.80426236	    -17.62744918	     29.38741037	     18.59247776	     -9.50756275	     34.97573629	      0.61044176	      7.11441761
     13.83333333	     -3.32708424	     13.77074945	     13.37856174	      2.08164938	      0.93794424	      0.99636960	     -0.74906169	    -17.61528047	    -17.11644529	    106.46769683	      1.85821186	    -17.26354695	     29.03881038	     18.91231457	     -8.74532131	     38.40871628	      0.67035856	     10.59881958
     13.84000000	     -4.20299957	     13.15711903	     13.89221490	      2.07845464	      0.93388866	      0.99602790	      3.40481421	    -17.48760894	    -15.76181293	    109.46335133	      1.91049589	    -17.07599389	     29.88203378	     18.54244163	     -7.74196113	     41.70784988	      0.72793930	     13.68743383
     13.84666667	     -3.98689912	     13.07159924	     14.18138439	      2.07559196	      0.93166843	      0.99594744	      6.16291619	    -17.81047468	    -14.59109050	    111.92241179	      1.95341459	    -16.69053130	     29.00724737	     18.49527829	     -6.65681812	     44.19423686	      0.77133494	     16.86598666
